<?xml version="1.0" standalone="no"?>
<!DOCTYPE svg PUBLIC "-//W3C//DTD SVG 20010904//EN"
 "http://www.w3.org/TR/2001/REC-SVG-20010904/DTD/svg10.dtd">
<svg version="1.0" xmlns="http://www.w3.org/2000/svg"
 width="1718.000000pt" height="519.000000pt" viewBox="0 0 1718.000000 519.000000"
 preserveAspectRatio="xMidYMid meet">

<g transform="translate(0.000000,519.000000) scale(0.100000,-0.100000)"
fill="#000000" stroke="none">
<path d="M0 5110 l0 -80 639 0 c701 0 734 -2 892 -60 98 -35 170 -75 263 -143
47 -35 72 -48 81 -41 137 101 231 154 339 190 153 52 180 54 867 54 l639 0 0
81 0 80 -677 -3 -678 -4 -96 -26 c-129 -35 -239 -80 -329 -135 l-75 -45 -35
21 c-83 50 -197 104 -280 132 -166 55 -222 59 -917 59 l-633 0 0 -80z"/>
<path d="M13850 4845 c0 -53 21 -99 51 -116 11 -6 53 -13 92 -16 128 -9 182
26 194 125 l6 52 -52 0 c-49 0 -51 -1 -51 -27 0 -41 -13 -54 -58 -60 -55 -7
-92 16 -92 57 0 29 -2 30 -45 30 l-45 0 0 -45z"/>
<path d="M3 3383 c3 -1423 3 -1439 24 -1535 118 -535 487 -1043 1038 -1429
186 -131 490 -296 703 -384 l93 -38 82 33 c210 84 496 239 696 377 594 408
995 984 1070 1536 7 53 11 541 11 1478 l0 1399 -656 0 c-623 0 -661 -1 -757
-21 -121 -24 -262 -79 -369 -142 l-77 -46 -82 49 c-91 55 -200 100 -322 132
-80 22 -99 22 -770 25 l-688 4 4 -1438z m1276 1277 c188 -20 369 -90 516 -201
l66 -50 67 51 c84 64 243 143 342 169 126 34 245 41 778 41 l512 0 0 -1328 c0
-1474 3 -1408 -67 -1627 -121 -381 -407 -766 -788 -1062 -227 -176 -529 -354
-778 -458 l-68 -28 -77 33 c-272 118 -576 301 -805 485 -445 358 -744 833
-806 1279 -7 52 -11 504 -11 1392 l0 1314 509 0 c281 0 554 -5 610 -10z"/>
<path d="M1800 4060 l0 -40 -105 0 -105 0 0 -210 0 -210 105 0 105 0 0 -75 0
-75 -50 0 -51 0 3 -77 3 -78 48 -3 47 -3 0 -315 c0 -172 -2 -314 -5 -314 -3 0
-242 149 -531 330 -289 182 -527 330 -529 330 -4 0 -75 -117 -75 -124 0 -3 18
-18 40 -32 22 -15 40 -30 40 -35 0 -5 -25 -47 -56 -95 -30 -47 -58 -92 -60
-99 -5 -12 113 -95 135 -95 5 0 37 45 71 100 34 55 64 100 66 100 2 0 23 -12
45 -27 47 -31 48 -26 -27 -145 -31 -48 -53 -92 -50 -97 3 -5 35 -27 71 -50
l65 -41 43 68 c24 37 53 84 66 105 13 22 27 34 34 31 7 -4 142 -88 300 -187
236 -147 286 -182 275 -192 -10 -10 -499 -318 -585 -368 -7 -4 -21 10 -37 37
-95 162 -319 188 -445 51 -70 -76 -94 -166 -67 -257 15 -53 173 -317 218 -365
64 -69 185 -100 280 -74 112 31 198 145 198 261 0 63 -18 126 -50 170 -11 15
-20 32 -20 37 0 6 368 241 551 352 l39 23 0 -426 0 -426 -50 0 -50 0 0 -55 c0
-51 -2 -55 -23 -55 -94 0 -228 -108 -262 -210 -11 -32 -19 -82 -18 -121 1
-151 118 -292 262 -315 36 -6 40 -10 43 -38 l3 -31 173 -3 172 -2 0 35 c0 32
3 35 28 35 80 0 211 101 255 198 32 71 30 189 -5 264 -46 99 -166 188 -253
188 -24 0 -25 3 -25 55 l0 55 -50 0 -50 0 0 430 0 430 83 -51 c396 -248 484
-304 495 -314 11 -10 8 -22 -18 -69 -109 -193 21 -421 240 -420 78 0 141 26
191 76 46 47 208 309 226 367 41 133 -43 292 -180 337 -63 21 -157 15 -213
-14 -37 -19 -97 -78 -135 -132 l-15 -23 -285 178 c-156 98 -290 183 -297 190
-10 9 48 50 284 198 l297 187 53 -83 c82 -130 68 -123 146 -74 37 23 68 46 68
51 0 5 -25 48 -55 96 -30 48 -55 92 -55 98 0 11 60 52 76 52 5 0 36 -43 68
-95 33 -52 64 -95 69 -95 13 0 137 80 137 89 0 3 -27 49 -60 101 -33 52 -60
97 -60 100 0 3 18 15 40 28 22 12 40 27 40 32 0 20 -72 121 -83 117 -7 -2
-241 -148 -522 -324 -280 -176 -516 -323 -522 -327 -10 -6 -13 60 -13 313 l0
321 50 0 50 0 0 80 0 80 -50 0 -50 0 0 75 0 75 105 0 105 0 0 210 0 210 -105
0 -105 0 0 40 0 40 -75 0 -75 0 0 -40z m210 -250 l0 -50 -135 0 -135 0 0 50 0
50 135 0 135 0 0 -50z m940 -1665 c41 -21 60 -53 60 -101 0 -34 -14 -63 -80
-170 -44 -71 -94 -141 -110 -156 -58 -54 -155 -28 -180 48 -7 19 -9 46 -6 60
6 24 154 263 185 298 32 37 84 45 131 21z m-2037 -13 c34 -21 207 -297 207
-330 0 -62 -57 -122 -117 -122 -53 0 -85 33 -175 177 -75 119 -88 146 -88 183
0 34 6 48 34 76 27 27 42 34 73 34 21 0 50 -8 66 -18z m864 -883 c15 -5 44
-21 64 -35 l37 -25 44 31 c59 41 112 48 170 22 154 -68 137 -279 -25 -323 -30
-8 -51 -8 -79 0 -36 11 -38 14 -38 51 l0 40 -74 0 -75 0 -3 -42 c-3 -40 -5
-43 -39 -51 -110 -26 -226 86 -205 196 10 52 46 99 96 125 49 24 84 28 127 11z"/>
<path d="M5460 4771 c0 -52 10 -61 68 -61 l22 0 0 -355 0 -355 -22 0 c-58 0
-68 -9 -68 -61 l0 -49 258 0 c141 0 273 5 293 10 97 27 149 101 157 224 7 121
-29 199 -110 236 l-38 17 30 22 c47 34 70 90 70 168 0 91 -14 137 -56 183 -57
63 -92 70 -366 70 l-238 0 0 -49z m477 -91 c31 -20 43 -53 43 -116 0 -69 -20
-109 -61 -123 -18 -6 -76 -11 -130 -11 l-99 0 0 136 0 136 113 -4 c73 -2 119
-9 134 -18z m39 -393 c38 -19 54 -59 54 -131 0 -69 -26 -118 -70 -133 -19 -7
-88 -12 -152 -12 l-118 -1 0 151 0 152 128 -5 c91 -3 136 -9 158 -21z"/>
<path d="M6506 4590 c-63 -11 -95 -35 -123 -90 -22 -42 -23 -56 -23 -260 0
-204 1 -218 23 -260 37 -74 66 -84 242 -88 140 -3 153 -2 195 20 33 17 51 35
68 68 21 42 22 56 22 261 0 130 -4 229 -11 246 -15 39 -48 73 -88 90 -42 18
-234 26 -305 13z m248 -131 l26 -20 0 -190 c0 -105 -4 -199 -10 -209 -14 -25
-63 -40 -135 -40 -78 0 -119 14 -134 46 -7 16 -11 92 -11 205 0 178 0 180 25
204 22 23 32 25 118 25 80 0 98 -3 121 -21z"/>
<path d="M7090 4552 l0 -49 40 -7 40 -6 0 -374 0 -373 -40 -7 c-40 -6 -40 -6
-40 -51 l0 -45 145 0 145 0 0 45 c0 45 0 45 -40 51 l-40 7 0 73 0 74 121 0
c143 0 189 12 229 57 45 51 52 94 48 317 -4 240 -11 264 -94 306 -47 24 -57
25 -281 28 l-233 4 0 -50z m435 -78 c37 -15 45 -56 45 -238 0 -170 -1 -176
-24 -203 -23 -27 -28 -28 -135 -31 l-111 -4 0 241 0 241 104 0 c57 0 112 -3
121 -6z"/>
<path d="M8055 4592 c-60 -11 -105 -42 -129 -87 -19 -36 -21 -60 -24 -241 -4
-223 3 -266 48 -317 40 -46 86 -57 237 -57 114 0 134 3 173 23 91 45 104 95
98 373 -3 163 -6 183 -26 222 -34 64 -83 83 -225 87 -62 2 -130 1 -152 -3z
m230 -124 c39 -18 47 -63 43 -250 -3 -159 -4 -169 -26 -190 -20 -21 -32 -23
-122 -23 -90 0 -102 2 -122 23 -22 21 -23 31 -26 190 -4 182 4 232 40 250 31
14 181 15 213 0z"/>
<path d="M8637 4594 c-4 -4 -7 -26 -7 -50 0 -42 1 -42 40 -49 l40 -7 0 -249 0
-249 -24 0 c-47 0 -56 -10 -56 -56 l0 -44 150 0 150 0 0 44 c0 46 -9 56 -56
56 -24 0 -24 1 -24 100 l0 100 130 0 130 0 0 -150 0 -150 106 0 105 0 -3 48
c-3 45 -4 47 -38 52 l-35 5 -3 246 -2 246 40 7 40 6 0 50 0 51 -142 -3 -143
-3 -3 -47 -3 -46 40 -7 41 -7 0 -94 0 -94 -130 0 -129 0 -3 148 -3 147 -101 3
c-55 1 -103 0 -107 -4z"/>
<path d="M9657 4590 c-66 -12 -106 -38 -131 -85 -19 -36 -21 -60 -24 -241 -4
-213 3 -262 40 -309 43 -55 84 -65 286 -65 l182 0 0 54 0 54 -165 4 c-203 4
-205 5 -213 122 l-5 76 207 0 206 0 0 129 c0 71 -5 142 -11 158 -14 39 -48 73
-88 90 -40 17 -217 26 -284 13z m227 -131 c24 -19 26 -27 26 -90 l0 -70 -137
3 -138 3 -3 40 c-5 55 13 110 40 123 13 6 60 11 104 11 68 1 86 -2 108 -20z"/>
<path d="M10220 4551 l0 -49 39 -7 40 -7 47 -119 48 -119 -24 -58 c-13 -31
-38 -89 -56 -129 -30 -66 -36 -72 -66 -75 -32 -3 -33 -5 -36 -50 l-3 -48 84 0
84 0 64 150 64 150 63 0 63 0 -3 -97 -3 -98 -35 -5 c-34 -5 -35 -7 -38 -52
l-3 -48 145 0 146 0 0 44 c0 46 -9 56 -56 56 -24 0 -24 1 -24 100 l0 100 58 0
59 0 64 -150 64 -150 88 0 87 0 0 45 c0 47 -1 47 -63 57 -13 2 -35 40 -74 129
l-55 126 47 120 47 121 39 6 39 6 0 50 0 50 -84 0 -84 0 -58 -147 -59 -148
-57 -3 -57 -3 -3 148 -3 148 -102 3 -103 3 0 -51 0 -50 40 -6 41 -7 -3 -91 -3
-91 -60 0 -59 0 -57 145 -56 145 -87 3 -86 3 0 -50z"/>
<path d="M11530 4595 c-8 -2 -32 -6 -52 -10 -21 -3 -51 -17 -68 -32 -55 -46
-60 -73 -60 -312 0 -205 1 -219 23 -261 38 -77 63 -84 275 -88 l182 -4 0 56 0
56 -134 0 c-139 0 -190 10 -206 40 -6 10 -10 102 -10 205 0 184 0 186 25 210
22 23 32 25 119 25 l95 0 6 -37 c4 -21 7 -45 8 -53 2 -10 17 -16 50 -18 l47
-3 0 115 0 116 -142 -1 c-79 -1 -150 -3 -158 -4z"/>
<path d="M12010 4551 l0 -49 40 -7 40 -7 0 -248 0 -249 -37 -3 c-38 -3 -38 -3
-41 -50 l-3 -48 146 0 146 0 -3 48 c-3 45 -4 47 -38 52 l-35 5 -3 98 -3 98 68
-3 68 -3 64 -147 64 -148 84 0 84 0 -3 48 c-3 45 -4 47 -38 52 -33 5 -36 9
-87 124 -29 66 -53 127 -53 135 0 9 20 66 44 126 l43 110 42 9 42 9 -3 46 -3
46 -85 0 -84 0 -57 -145 -56 -145 -67 -3 -66 -3 0 151 0 150 -105 0 -105 0 0
-49z"/>
<path d="M12810 4551 l0 -49 40 -7 40 -7 0 -248 0 -249 -37 -3 c-38 -3 -38 -3
-41 -50 l-3 -48 108 0 108 0 130 237 130 238 3 -238 2 -237 110 0 110 0 0 44
c0 46 -9 56 -56 56 l-24 0 0 249 0 249 41 7 40 7 -3 46 -3 47 -106 3 -106 3
-127 -233 c-70 -128 -132 -237 -137 -242 -5 -6 -9 84 -9 232 l0 242 -105 0
-105 0 0 -49z"/>
<path d="M13670 4551 l0 -49 40 -7 40 -7 0 -248 0 -249 -37 -3 c-38 -3 -38 -3
-41 -50 l-3 -48 108 0 108 0 130 237 130 236 3 -236 2 -237 110 0 110 0 0 44
c0 46 -9 56 -56 56 l-24 0 0 249 0 249 41 7 40 7 -3 46 -3 47 -106 3 -105 3
-124 -227 c-69 -124 -130 -234 -137 -243 -10 -13 -12 31 -13 227 l0 242 -105
0 -105 0 0 -49z"/>
<path d="M16661 3263 c1 -108 44 -143 174 -143 124 0 165 34 165 136 l0 44
-45 0 c-43 0 -45 -1 -45 -29 0 -43 -23 -61 -79 -61 -54 0 -68 11 -73 55 -3 28
-6 30 -50 33 l-48 3 1 -38z"/>
<path d="M5460 3175 c0 -54 0 -55 29 -55 65 0 61 22 61 -360 l0 -349 -45 -7
-45 -6 0 -54 0 -55 158 3 157 3 3 51 3 52 -46 6 -45 7 0 345 0 345 133 -3 132
-3 3 -25 c10 -94 8 -91 65 -88 l52 3 3 123 3 122 -311 0 -310 0 0 -55z"/>
<path d="M6335 2988 c-46 -16 -92 -65 -105 -112 -8 -28 -10 -112 -8 -252 3
-240 9 -260 88 -304 41 -22 56 -24 170 -25 148 0 189 7 230 42 59 49 64 70 68
274 6 267 -11 329 -102 370 -34 15 -65 18 -176 18 -74 0 -148 -5 -165 -11z
m288 -126 c21 -22 22 -30 22 -213 l0 -191 -28 -24 c-25 -22 -37 -24 -121 -24
-144 0 -140 -6 -144 225 -4 249 1 257 161 252 75 -3 91 -6 110 -25z"/>
<path d="M7099 2990 c-46 -13 -78 -41 -99 -84 -18 -39 -20 -61 -20 -257 0
-203 1 -217 23 -259 12 -24 33 -52 47 -62 35 -26 124 -38 278 -38 l132 0 0 60
0 60 -150 0 c-147 0 -152 1 -175 25 -25 24 -25 26 -25 212 1 138 4 193 14 205
20 27 62 38 146 38 87 0 85 2 92 -75 3 -28 6 -30 51 -33 l47 -3 0 110 0 111
-167 -1 c-93 0 -180 -4 -194 -9z"/>
<path d="M7632 2953 c3 -46 4 -48 37 -53 l34 -5 81 -285 82 -285 42 -3 c49 -4
50 -9 21 -87 -23 -61 -40 -75 -93 -75 l-36 0 0 -60 0 -60 39 0 c80 0 145 40
182 112 10 20 63 196 118 390 l98 353 34 5 c33 5 34 7 37 53 l3 47 -141 0
-141 0 3 -47 c3 -46 4 -48 38 -53 19 -3 34 -10 34 -15 -1 -6 -26 -101 -55
-212 -49 -186 -55 -203 -75 -203 -27 0 -22 -14 -105 298 l-62 232 -89 0 -89 0
3 -47z"/>
<path d="M8482 2953 c3 -48 3 -48 41 -51 20 -2 37 -9 37 -15 0 -62 -41 -401
-51 -419 -21 -41 -42 -58 -71 -58 l-28 0 0 -140 0 -140 54 0 54 0 7 80 7 80
223 0 223 0 8 -77 9 -78 53 -3 52 -3 0 140 0 141 -45 0 -45 0 2 243 3 242 35
5 c34 5 35 7 38 53 l3 47 -306 0 -306 0 3 -47z m398 -303 l0 -240 -134 0 -133
0 18 38 c13 27 23 89 34 227 9 105 18 196 21 203 2 8 31 12 99 12 l95 0 0
-240z"/>
<path d="M9330 2946 l0 -56 119 0 c125 0 175 -11 191 -40 6 -10 10 -46 10 -79
l0 -61 -107 0 c-60 0 -125 -5 -146 -11 -51 -14 -104 -63 -118 -109 -18 -58 -8
-183 17 -216 54 -73 104 -84 370 -84 l194 0 0 50 0 50 -40 6 -40 7 0 231 c0
221 -1 234 -22 276 -39 75 -65 84 -260 88 l-168 4 0 -56z m320 -447 l0 -101
-106 4 c-97 3 -107 5 -125 27 -28 34 -26 117 3 148 20 21 30 23 125 23 l103 0
0 -101z"/>
<path d="M9980 2957 c0 -48 9 -57 56 -57 l24 0 0 -375 0 -375 -27 -6 c-52 -11
-53 -12 -53 -59 l0 -45 145 0 145 0 0 50 c0 46 -2 50 -24 50 -51 0 -56 8 -56
81 l0 69 93 0 c187 0 259 28 292 113 14 37 16 77 13 263 -3 245 -8 264 -78
307 -33 21 -48 22 -282 25 l-248 3 0 -44z m427 -77 c47 -17 53 -43 53 -241 0
-178 0 -180 -25 -204 -23 -24 -31 -25 -135 -25 l-110 0 0 233 c0 129 3 237 7
240 10 11 177 8 210 -3z"/>
<path d="M10894 2981 c-91 -41 -108 -103 -102 -370 4 -198 9 -221 60 -268 42
-39 77 -46 256 -51 l172 -4 0 61 0 61 -145 0 c-88 0 -154 5 -170 12 -38 17
-47 69 -43 254 4 209 2 206 147 212 l98 4 7 -56 7 -56 50 0 49 0 0 110 0 110
-172 0 c-147 0 -179 -3 -214 -19z"/>
<path d="M11450 2895 l0 -105 45 0 44 0 7 50 7 50 58 0 59 0 0 -244 0 -244
-40 -7 -40 -7 0 -49 0 -49 145 0 145 0 0 49 0 49 -40 7 -40 7 0 244 0 244 59
0 59 0 7 -50 7 -50 44 0 44 0 0 105 0 105 -285 0 -285 0 0 -105z"/>
<path d="M12182 2953 c3 -46 4 -48 38 -53 l35 -5 3 -246 2 -246 -40 -7 -40 -6
0 -51 0 -51 238 4 c231 3 238 4 281 28 60 34 85 84 85 169 1 80 -22 126 -78
157 l-37 21 25 17 c43 28 59 70 54 147 -4 81 -24 114 -88 147 -42 21 -56 22
-263 22 l-218 0 3 -47z m373 -73 c47 -11 65 -32 65 -78 0 -71 -36 -92 -156
-92 l-74 0 0 90 0 90 63 0 c34 0 80 -5 102 -10z m69 -301 c22 -17 26 -28 26
-72 0 -29 -4 -57 -8 -64 -14 -23 -64 -33 -158 -33 l-94 0 0 95 0 95 104 0 c89
0 107 -3 130 -21z"/>
<path d="M13087 2986 c-50 -18 -67 -34 -88 -81 -16 -35 -19 -69 -19 -258 0
-233 5 -261 51 -304 43 -39 78 -46 272 -51 l187 -4 0 61 0 61 -165 0 c-163 0
-166 0 -190 25 -22 21 -25 33 -25 100 l0 75 205 0 205 0 0 113 c0 61 -5 129
-11 150 -14 52 -60 101 -107 115 -54 16 -267 15 -315 -2z m279 -129 c20 -23
24 -39 24 -88 l0 -59 -140 0 -140 0 0 59 c0 33 3 67 6 76 12 31 64 45 147 43
72 -3 81 -6 103 -31z"/>
<path d="M13702 2953 c3 -46 4 -48 38 -53 l35 -5 3 -246 2 -246 -40 -7 -40 -6
0 -50 0 -51 143 3 142 3 3 47 3 46 -40 7 -41 7 0 94 0 94 130 0 129 0 3 -147
3 -148 105 0 105 0 3 47 3 46 -40 7 -41 7 0 249 0 249 24 0 c47 0 56 10 56 56
l0 44 -151 0 -150 0 3 -47 c3 -48 3 -48 41 -51 l37 -3 0 -95 0 -94 -130 0
-130 0 0 145 0 145 -106 0 -105 0 3 -47z"/>
<path d="M14552 2953 c3 -46 4 -48 38 -53 l35 -5 3 -247 2 -246 -40 -7 -40 -7
0 -49 0 -49 145 0 145 0 0 49 0 49 -40 7 -40 7 0 94 0 94 135 0 135 0 0 -150
0 -150 105 0 105 0 0 49 0 49 -40 7 -40 7 0 248 0 249 38 3 c37 3 37 3 40 51
l3 47 -146 0 -146 0 3 -47 c3 -46 4 -48 38 -53 l35 -5 3 -92 3 -93 -136 0
-135 0 0 145 0 145 -106 0 -105 0 3 -47z"/>
<path d="M15402 2953 c3 -48 3 -48 41 -51 l37 -3 0 -249 0 -248 -41 -7 -40 -7
3 -46 3 -47 215 0 c211 0 216 1 259 25 61 34 84 82 89 184 5 97 -9 155 -48
199 -38 44 -86 57 -209 57 l-102 0 3 68 3 67 35 5 c34 5 35 7 38 53 l3 47
-146 0 -146 0 3 -47z m409 -330 c27 -26 38 -118 20 -162 -17 -39 -49 -51 -141
-51 l-80 0 0 113 c0 63 3 117 8 121 4 4 44 6 89 4 69 -2 86 -7 104 -25z"/>
<path d="M16032 2953 c3 -46 4 -48 38 -53 l35 -5 3 -247 2 -246 -40 -7 -40 -7
0 -49 0 -49 145 0 145 0 0 49 0 49 -40 7 -40 7 2 246 3 247 35 5 c34 5 35 7
38 53 l3 47 -146 0 -146 0 3 -47z"/>
<path d="M16492 2953 c3 -46 4 -48 38 -53 l35 -5 3 -246 2 -246 -40 -7 -40 -6
0 -50 0 -50 103 0 103 0 135 243 134 242 3 -242 2 -243 105 0 105 0 0 49 0 49
-40 7 -40 7 2 246 3 247 35 5 c34 5 35 7 38 53 l3 47 -108 0 -108 0 -130 -237
-130 -238 -3 238 -2 237 -106 0 -105 0 3 -47z"/>
<path d="M5410 1581 l0 -50 44 -6 c41 -6 44 -10 55 -48 7 -23 46 -147 87 -274
l75 -233 59 0 59 0 -14 -47 c-18 -62 -51 -89 -114 -98 l-51 -7 0 -59 0 -59 43
0 c100 0 182 53 222 145 12 28 66 190 120 362 l98 311 43 7 44 6 0 50 0 49
-160 0 -160 0 0 -49 0 -49 45 -6 c25 -4 45 -10 45 -13 0 -3 -14 -51 -31 -107
-17 -56 -44 -145 -60 -199 l-30 -98 -36 3 -36 3 -76 255 -76 255 -98 3 -97 3
0 -50z"/>
<path d="M6270 1361 l0 -48 40 -7 40 -6 0 -244 c0 -265 2 -256 -56 -256 -22 0
-24 -4 -24 -50 l0 -50 145 0 145 0 0 50 c0 46 -2 50 -24 50 -53 0 -56 5 -56
106 l0 94 135 0 135 0 0 -150 0 -150 105 0 105 0 0 49 0 50 -37 3 -38 3 -3
247 -2 248 40 6 40 7 0 48 0 49 -145 0 -145 0 0 -49 0 -48 40 -7 41 -6 -3 -93
-3 -92 -132 -3 -133 -3 0 151 0 150 -105 0 -105 0 0 -49z"/>
<path d="M7127 1403 c-4 -3 -7 -25 -7 -48 0 -42 1 -43 40 -49 l40 -6 -2 -248
-3 -247 -35 -5 c-34 -5 -35 -7 -38 -52 l-3 -48 109 0 109 0 129 235 c71 129
132 235 137 235 4 0 7 -106 7 -235 l0 -235 105 0 105 0 0 50 c0 46 -2 50 -24
50 -58 0 -56 -9 -56 256 l0 244 40 6 40 7 0 48 0 49 -107 0 -108 0 -128 -235
c-71 -129 -133 -235 -138 -235 -5 0 -9 102 -9 235 l0 235 -98 0 c-54 0 -102
-3 -105 -7z"/>
<path d="M7987 1403 c-4 -3 -7 -25 -7 -48 0 -42 1 -43 40 -49 l40 -6 -2 -248
-3 -247 -35 -5 c-34 -5 -35 -6 -38 -53 l-3 -48 248 3 c275 3 289 6 335 70 20
29 23 45 23 125 0 84 -2 94 -25 118 -14 15 -38 34 -54 42 l-30 15 27 20 c39
28 57 69 57 128 0 91 -47 157 -128 180 -40 11 -435 14 -445 3z m418 -138 c17
-16 25 -35 25 -60 0 -25 -8 -44 -25 -60 -22 -23 -32 -25 -120 -25 l-95 0 0 85
0 85 95 0 c88 0 98 -2 120 -25z m4 -266 c39 -14 51 -35 51 -93 0 -76 -17 -86
-155 -86 l-115 0 0 88 c0 49 3 92 7 95 11 11 178 8 212 -4z"/>
<path d="M8925 1401 c-57 -14 -95 -41 -117 -84 -20 -38 -22 -60 -26 -222 -6
-256 12 -329 91 -373 27 -14 65 -18 230 -20 l198 -4 -3 59 -3 58 -173 5 c-206
6 -202 4 -202 117 l0 73 203 2 202 3 3 99 c7 241 -47 298 -281 295 -51 -1
-105 -4 -122 -8z m235 -121 c23 -12 40 -61 40 -116 l0 -44 -140 0 -140 0 0 65
c0 94 13 105 131 105 50 0 99 -4 109 -10z"/>
<path d="M9507 1403 c-4 -3 -7 -24 -7 -45 0 -39 2 -41 53 -52 l27 -6 0 -375 0
-375 -24 0 c-47 0 -56 -10 -56 -56 l0 -44 145 0 145 0 0 45 c0 41 -2 45 -27
51 -16 3 -34 7 -40 10 -9 2 -13 26 -13 74 l0 70 118 0 c64 0 134 5 155 11 51
14 104 63 117 107 5 20 10 128 10 240 0 160 -3 210 -15 240 -42 98 -87 112
-370 112 -116 0 -215 -3 -218 -7z m448 -138 c25 -24 25 -26 25 -208 0 -244 4
-237 -156 -237 l-114 0 0 235 0 235 110 0 c104 0 112 -1 135 -25z"/>
<path d="M10455 1401 c-57 -14 -95 -41 -117 -84 -20 -38 -22 -60 -26 -222 -6
-256 12 -329 91 -373 26 -14 64 -18 215 -20 l182 -4 0 61 0 61 -151 0 c-83 0
-159 5 -169 10 -30 16 -40 73 -40 225 0 152 10 209 40 225 10 5 61 10 113 10
l95 0 7 -50 7 -50 49 0 49 0 0 110 0 110 -157 -1 c-87 -1 -171 -4 -188 -8z"/>
<path d="M10980 1361 l0 -48 40 -7 40 -6 0 -244 c0 -265 2 -256 -56 -256 -22
0 -24 -4 -24 -50 l0 -51 107 3 108 3 130 235 130 235 3 -237 2 -238 105 0 105
0 0 50 c0 46 -2 50 -24 50 -58 0 -56 -9 -56 256 l0 244 40 6 40 7 0 49 0 49
-106 -3 -106 -3 -131 -240 -132 -240 -3 243 -2 242 -105 0 -105 0 0 -49z"/>
<path d="M11834 1397 c-3 -8 -3 -56 -2 -108 l3 -94 42 -3 42 -3 7 50 7 51 58
0 59 0 -2 -242 -3 -243 -37 -3 -38 -3 0 -50 0 -49 145 0 145 0 0 50 c0 46 -2
50 -24 50 -58 0 -56 -8 -56 251 l0 239 60 0 59 0 7 -50 7 -50 43 0 44 0 0 110
0 110 -280 0 c-224 0 -282 -3 -286 -13z"/>
<path d="M12711 1400 c-39 -9 -77 -35 -105 -74 -20 -26 -21 -43 -24 -259 -3
-225 -2 -233 20 -276 39 -77 69 -85 296 -89 l192 -4 0 61 0 61 -170 0 c-161 0
-170 1 -190 22 -16 18 -20 35 -20 95 l0 73 206 0 206 0 -4 138 c-2 87 -9 146
-17 162 -41 76 -103 101 -255 99 -56 -1 -116 -5 -135 -9z m250 -129 c19 -15
24 -30 27 -85 l4 -66 -141 0 -141 0 0 62 c0 50 4 66 22 85 19 21 30 23 114 23
75 0 96 -3 115 -19z"/>
<path d="M13300 1300 l0 -110 39 0 c43 0 51 10 51 66 l0 34 60 0 60 0 -2 -242
-3 -243 -35 -5 c-34 -5 -35 -7 -38 -52 l-3 -48 145 0 146 0 0 50 c0 46 -2 50
-24 50 -58 0 -56 -8 -56 252 l0 239 63 -3 62 -3 5 -45 c5 -45 5 -45 48 -48
l42 -3 0 110 0 111 -280 0 -280 0 0 -110z"/>
</g>
</svg>
