<?xml version="1.0" standalone="no"?>
<!DOCTYPE svg PUBLIC "-//W3C//DTD SVG 20010904//EN"
 "http://www.w3.org/TR/2001/REC-SVG-20010904/DTD/svg10.dtd">
<svg version="1.0" xmlns="http://www.w3.org/2000/svg"
 width="200.000000pt" height="201.000000pt" viewBox="0 0 200.000000 201.000000"
 preserveAspectRatio="xMidYMid meet">

<g transform="translate(0.000000,201.000000) scale(0.100000,-0.100000)"
fill="#000000" stroke="none">
<path d="M870 1950 c-102 -14 -232 -56 -329 -104 -408 -205 -603 -660 -462
-1073 102 -296 359 -523 688 -605 126 -32 350 -32 477 0 190 48 335 129 471
266 176 177 258 376 257 621 0 147 -22 240 -87 372 -123 249 -347 427 -632
499 -109 27 -280 38 -383 24z m-189 -233 c9 -6 24 -23 34 -39 59 -100 -93
-202 -176 -119 -38 38 -41 106 -6 139 43 41 101 48 148 19z m772 9 c61 -26 85
-77 63 -131 -30 -71 -119 -89 -178 -36 -58 52 -40 133 37 167 38 17 39 17 78
0z m-743 -253 c14 -9 79 -67 145 -127 66 -61 130 -119 142 -129 21 -18 22 -17
160 110 172 160 176 163 236 163 107 0 129 -48 125 -278 l-3 -162 -35 23 c-66
44 -96 52 -138 34 -20 -8 -44 -18 -54 -20 -14 -5 -15 -12 -6 -46 l10 -41 92
-2 91 -2 -91 -3 -92 -4 -7 -35 c-3 -20 -5 -37 -3 -39 8 -9 95 -37 112 -36 11
0 41 14 68 30 l48 30 0 -84 0 -85 -129 0 -129 0 -4 29 c-4 27 -2 29 46 40 73
17 87 27 53 40 -64 25 -71 23 -97 -16 -13 -21 -23 -41 -22 -45 1 -5 -10 -8
-26 -7 -25 0 -25 1 -6 9 25 10 69 68 60 78 -9 8 -107 20 -178 21 l-58 1 -2
-77 -2 -78 -3 79 -4 79 -106 -7 c-135 -9 -140 -11 -108 -58 14 -20 33 -39 42
-41 15 -4 15 -5 -2 -6 -13 -1 -30 14 -50 43 -32 48 -46 51 -104 21 -22 -11
-20 -13 41 -30 61 -18 64 -20 60 -47 l-4 -28 -129 0 -129 0 0 85 0 84 48 -29
c60 -37 66 -38 131 -16 51 18 53 19 47 48 -3 17 -6 37 -6 44 0 11 -26 14 -122
16 l-123 2 124 6 c68 3 154 3 190 0 l66 -5 -64 -3 -63 -3 7 -37 c4 -20 8 -39
10 -43 2 -3 30 -2 62 2 32 4 86 8 121 8 l63 1 -3 63 -3 62 -95 8 c-52 4 -106
9 -119 10 -19 1 -27 -4 -32 -23 -8 -24 -8 -24 -6 4 2 27 -2 31 -54 50 l-56 20
-67 -37 -68 -38 4 178 c4 192 11 223 57 248 36 20 111 19 141 -2z m270 -9 c12
-31 6 -44 -21 -44 -15 0 -19 7 -19 35 0 43 25 48 40 9z m48 19 c-10 -2 -18
-17 -21 -36 -4 -31 -4 -31 -5 6 -2 33 1 37 21 36 15 -1 17 -3 5 -6z m57 -14
c4 12 9 21 11 18 6 -6 -17 -67 -25 -67 -4 0 -7 8 -7 18 -1 9 -4 26 -8 37 -5
13 -3 12 7 -4 l15 -24 7 22z m-142 -666 c-13 -2 -35 -2 -50 0 -16 2 -5 4 22 4
28 0 40 -2 28 -4z m200 0 c-13 -2 -35 -2 -50 0 -16 2 -5 4 22 4 28 0 40 -2 28
-4z m-448 -69 c32 -21 32 -49 0 -70 -23 -15 -27 -15 -50 0 -31 20 -32 49 -2
69 28 20 23 20 52 1z m104 -43 c10 -31 4 -63 -6 -33 -5 14 -43 16 -43 2 0 -5
-5 -10 -11 -10 -12 0 -8 26 11 76 9 23 13 25 24 13 7 -8 18 -29 25 -48z m49
19 c4 0 13 9 20 21 17 27 27 18 12 -11 -9 -17 -8 -26 5 -46 13 -20 13 -24 1
-24 -8 0 -18 9 -21 20 -3 11 -11 20 -16 20 -5 0 -9 -9 -9 -20 0 -11 -4 -20
-10 -20 -5 0 -10 20 -10 43 0 46 13 73 18 38 2 -12 6 -21 10 -21z m112 21 c8
13 15 19 17 12 6 -16 -35 -93 -48 -93 -8 0 -8 4 -1 13 7 8 6 19 -3 37 -21 38
-18 60 4 31 l19 -24 12 24z m108 -33 c2 -29 -1 -48 -7 -48 -6 0 -11 18 -11 40
0 29 -4 40 -15 40 -9 0 -15 -9 -15 -24 0 -36 -10 -56 -28 -56 -12 0 -13 3 -4
12 7 7 12 26 12 43 0 39 7 47 40 43 22 -3 25 -8 28 -50z m42 26 c0 -8 6 -14
14 -14 7 0 19 -7 26 -15 17 -20 -3 -45 -36 -45 -22 0 -24 4 -24 51 0 31 4 48
10 44 6 -3 10 -13 10 -21z m130 16 c0 -5 -7 -10 -15 -10 -11 0 -15 -11 -15
-40 0 -22 -4 -40 -10 -40 -5 0 -10 18 -10 40 0 30 -4 40 -16 40 -8 0 -12 5 -9
10 3 6 22 10 41 10 19 0 34 -4 34 -10z m155 -1 c4 -5 -1 -9 -9 -9 -12 0 -16
-10 -16 -40 0 -22 -4 -40 -10 -40 -5 0 -10 18 -10 40 l0 40 -40 0 c-22 0 -40
-4 -40 -10 0 -5 9 -10 20 -10 11 0 20 -4 20 -10 0 -5 -9 -10 -21 -10 -12 0
-19 -5 -16 -12 2 -7 11 -13 20 -13 8 0 19 -4 23 -8 4 -4 -9 -7 -29 -7 -37 0
-37 0 -37 43 0 24 2 46 6 49 9 10 133 7 139 -3z m-998 -156 l16 -38 12 34 c18
55 35 51 35 -8 0 -49 -19 -75 -21 -28 l0 22 -9 -22 c-12 -30 -24 -29 -37 5
l-11 27 -1 -27 c-2 -46 -21 -31 -21 15 0 39 5 57 17 57 2 0 11 -17 20 -37z
m153 27 c0 -5 -11 -10 -25 -10 -14 0 -25 -4 -25 -10 0 -5 9 -10 20 -10 11 0
20 -4 20 -10 0 -5 -9 -10 -20 -10 -30 0 -24 -28 8 -33 22 -3 20 -4 -10 -6
l-38 -1 0 43 c0 24 3 47 7 50 10 11 63 8 63 -3z m39 -12 l14 -22 10 24 10 25
4 -22 c5 -29 14 -29 31 -2 17 27 27 18 12 -10 -8 -15 -8 -27 0 -42 17 -31 2
-38 -20 -9 l-20 25 0 -22 c0 -13 -4 -23 -10 -23 -5 0 -10 10 -10 23 l0 22 -20
-25 c-22 -29 -37 -22 -20 9 7 15 8 27 0 40 -20 37 -3 45 19 9z m191 -12 c0
-18 3 -48 6 -65 4 -20 3 -31 -5 -31 -6 0 -11 7 -11 15 0 10 -10 15 -30 15 -22
0 -30 -5 -30 -17 0 -13 -3 -14 -12 -5 -10 10 -10 17 0 32 6 11 12 28 12 39 0
37 12 51 41 51 26 0 29 -3 29 -34z m45 14 c8 -26 22 -26 30 0 4 11 10 18 15
15 14 -9 -27 -90 -47 -93 -15 -3 -15 -1 -3 7 12 9 12 14 -3 46 -20 41 -20 45
-8 45 5 0 13 -9 16 -20z m85 -5 c0 -18 5 -25 20 -25 15 0 20 7 20 25 0 14 5
25 10 25 6 0 10 -22 10 -50 0 -27 -4 -50 -10 -50 -5 0 -10 9 -10 20 0 13 -7
20 -20 20 -13 0 -20 -7 -20 -20 0 -11 -4 -20 -10 -20 -5 0 -10 23 -10 50 0 28
5 50 10 50 6 0 10 -11 10 -25z m144 -22 c9 -25 13 -49 10 -52 -4 -3 -9 0 -11
7 -3 6 -13 12 -23 12 -10 0 -20 -6 -23 -12 -2 -7 -7 -10 -11 -7 -8 7 23 99 34
99 4 0 15 -21 24 -47z m91 33 c22 -16 14 -46 -15 -53 -11 -3 -20 -12 -20 -19
0 -8 -4 -14 -10 -14 -5 0 -10 23 -10 50 0 42 3 50 18 50 10 0 27 -6 37 -14z
m99 -2 c33 -32 14 -84 -31 -84 -35 0 -51 41 -29 75 19 29 38 32 60 9z m101 4
c11 -36 15 -118 5 -118 -5 0 -10 7 -10 15 0 10 -10 15 -30 15 -20 0 -30 -5
-30 -15 0 -8 -4 -15 -10 -15 -5 0 -10 9 -10 19 0 11 5 23 10 26 6 3 10 21 10
39 0 18 3 36 7 39 11 12 53 8 58 -5z m68 -36 c11 -2 17 3 17 17 0 11 5 23 10
26 6 4 10 -13 10 -44 0 -28 -4 -51 -10 -51 -5 0 -10 9 -10 20 0 13 -7 20 -20
20 -13 0 -20 -7 -20 -20 0 -11 -4 -20 -10 -20 -12 0 -14 83 -3 94 5 4 10 -3
13 -16 3 -12 14 -24 23 -26z m97 8 c25 0 43 -33 28 -48 -7 -7 -25 -12 -40 -12
-26 0 -28 3 -28 43 0 46 13 73 18 38 2 -13 11 -21 22 -21z m60 -10 c0 -27 -4
-50 -8 -50 -9 0 -14 79 -6 92 11 17 14 7 14 -42z m49 33 c9 -17 11 -17 25 2
12 16 15 17 16 5 0 -9 -5 -21 -11 -27 -9 -9 -8 -18 5 -37 13 -21 14 -26 2 -26
-7 0 -17 8 -21 18 -6 16 -7 16 -16 0 -15 -26 -32 -23 -18 3 8 16 8 28 0 46
-13 29 -14 33 -1 33 5 0 13 -8 19 -17z m-205 -124 c-3 -5 -11 -9 -19 -9 -8 0
-16 4 -19 9 -3 5 5 9 19 9 14 0 22 -4 19 -9z m-746 -61 c4 -46 -22 -66 -56
-42 -39 27 -20 87 26 82 23 -3 27 -8 30 -40z m80 35 c-13 -3 -18 -15 -18 -44
0 -21 -4 -39 -10 -39 -5 0 -10 18 -10 39 0 29 -5 41 -17 44 -10 3 2 5 27 5 25
0 37 -2 28 -5z m42 -13 c0 -13 7 -20 20 -20 13 0 20 7 20 20 0 11 5 20 10 20
6 0 10 -20 10 -45 0 -25 -4 -45 -10 -45 -5 0 -10 9 -10 20 0 12 -7 20 -16 20
-9 0 -18 -9 -21 -20 -9 -36 -23 -21 -23 25 0 25 5 45 10 45 6 0 10 -9 10 -20z
m150 1 c14 -28 13 -38 -10 -61 -29 -29 -60 -11 -60 34 0 18 3 36 7 39 13 14
53 6 63 -12z m40 -21 c0 -29 4 -40 15 -40 11 0 15 11 15 40 0 22 5 40 10 40 6
0 10 -18 10 -40 0 -22 5 -40 10 -40 6 0 10 18 10 40 0 22 5 40 10 40 6 0 10
-20 10 -45 l0 -45 -55 0 -55 0 0 45 c0 25 5 45 10 45 6 0 10 -18 10 -40z m158
33 c-34 -5 -38 -32 -5 -34 l22 -2 -22 -4 c-32 -6 -29 -31 5 -36 22 -3 20 -4
-10 -6 l-38 -1 0 45 0 45 38 -1 c30 -2 32 -3 10 -6z m52 -13 c0 -27 28 -25 40
3 7 18 9 13 9 -25 1 -27 -3 -48 -8 -48 -5 0 -8 8 -7 17 0 10 -7 19 -16 21 -13
2 -18 -3 -18 -17 0 -12 -4 -21 -10 -21 -5 0 -10 20 -10 45 0 25 5 45 10 45 6
0 10 -9 10 -20z m90 -7 l1 -28 22 28 c13 15 26 27 30 27 4 0 7 -20 7 -45 0
-25 -4 -45 -10 -45 -5 0 -10 12 -10 28 l-1 27 -17 -27 c-25 -42 -42 -35 -42
17 0 25 5 45 10 45 6 0 10 -12 10 -27z m99 -23 c4 0 13 11 19 25 18 39 32 30
32 -20 0 -25 -4 -45 -10 -45 -5 0 -10 12 -10 28 l-1 27 -15 -27 c-22 -41 -34
-34 -33 20 1 29 4 36 6 20 2 -16 8 -28 12 -28z"/>
<path d="M770 1206 c0 -19 6 -37 13 -39 6 -3 4 -6 -7 -6 -29 -1 -96 -23 -96
-32 0 -7 55 -29 74 -29 12 0 51 60 48 73 -1 4 8 7 20 7 21 0 21 0 2 21 -10 11
-27 25 -36 30 -16 8 -18 5 -18 -25z"/>
<path d="M1185 1184 c-39 -33 -86 -71 -105 -86 l-35 -28 55 1 c57 0 137 12
147 22 7 8 -34 74 -50 81 -7 2 -2 5 11 5 12 1 21 -2 20 -6 -3 -13 36 -73 48
-73 19 0 74 22 74 29 0 9 -68 31 -96 31 -14 0 -16 2 -6 9 8 5 12 21 10 41 l-3
32 -70 -58z"/>
<path d="M809 1151 c-16 -16 -29 -36 -29 -45 0 -18 90 -38 154 -34 l45 3 -64
53 c-35 28 -66 52 -70 52 -4 0 -20 -13 -36 -29z"/>
<path d="M1238 1074 c-3 -3 -53 -8 -109 -12 l-104 -7 -3 -62 -3 -63 63 -1 c35
0 89 -4 121 -8 64 -8 62 -9 72 36 l6 32 -128 4 -128 3 128 2 c70 1 127 6 127
11 0 4 -5 22 -11 40 -11 30 -19 37 -31 25z"/>
<path d="M950 1470 c0 -5 5 -10 10 -10 6 0 10 5 10 10 0 6 -4 10 -10 10 -5 0
-10 -4 -10 -10z"/>
<path d="M950 1440 c0 -5 7 -10 15 -10 8 0 15 5 15 10 0 6 -7 10 -15 10 -8 0
-15 -4 -15 -10z"/>
<path d="M645 707 c-4 -10 -5 -21 -1 -24 10 -10 18 4 13 24 -4 17 -4 17 -12 0z"/>
<path d="M680 700 c0 -11 5 -20 10 -20 6 0 10 9 10 20 0 11 -4 20 -10 20 -5 0
-10 -9 -10 -20z"/>
<path d="M760 700 c0 -5 5 -10 11 -10 5 0 7 5 4 10 -3 6 -8 10 -11 10 -2 0 -4
-4 -4 -10z"/>
<path d="M1110 681 c0 -14 5 -19 15 -14 17 6 15 25 -3 31 -7 2 -12 -5 -12 -17z"/>
<path d="M730 565 c0 -24 5 -35 15 -35 10 0 15 11 15 35 0 24 -5 35 -15 35
-10 0 -15 -11 -15 -35z"/>
<path d="M1020 565 c0 -8 5 -15 10 -15 6 0 10 7 10 15 0 8 -4 15 -10 15 -5 0
-10 -7 -10 -15z"/>
<path d="M1110 585 c0 -8 7 -15 15 -15 8 0 15 7 15 15 0 8 -7 15 -15 15 -8 0
-15 -7 -15 -15z"/>
<path d="M1195 581 c-7 -24 4 -51 21 -51 15 0 29 43 19 59 -10 17 -33 13 -40
-8z"/>
<path d="M1298 565 c-3 -29 -1 -35 14 -35 14 0 18 8 18 35 0 23 -5 35 -14 35
-8 0 -15 -14 -18 -35z"/>
<path d="M1490 545 c0 -10 7 -15 18 -13 21 4 19 22 -2 26 -10 2 -16 -3 -16
-13z"/>
<path d="M614 436 c-9 -24 0 -51 19 -54 15 -3 18 2 15 29 -3 35 -24 51 -34 25z"/>
<path d="M897 443 c-13 -13 -7 -63 7 -63 21 0 29 17 22 46 -6 24 -17 30 -29
17z"/>
</g>
</svg>
